# Blender v2.82 (sub 7) OBJ File: 'Hexagon.blend'
# www.blender.org
mtllib Hexagon.mtl
o Hexagon_Hexagon_Mesh
v 0.000000 -0.050000 1.000000
v 0.000000 0.050000 1.000000
v -0.866025 -0.050000 0.500000
v -0.866025 0.050000 0.500000
v -0.866025 -0.050000 -0.500000
v -0.866025 0.050000 -0.500000
v 0.000000 -0.050000 -1.000000
v 0.000000 0.050000 -1.000000
v 0.866025 -0.050000 -0.500000
v 0.866025 0.050000 -0.500000
v 0.866025 -0.050000 0.500000
v 0.866025 0.050000 0.500000
vt 0.342510 0.893804
vt 0.342510 0.893804
vt 0.342510 0.893804
vt 0.342510 0.893804
vt 0.342510 0.893804
vt 0.342510 0.893804
vt 0.342510 0.893804
vt 0.342510 0.893804
vt 0.342510 0.893804
vt 0.342510 0.893804
vt 0.342510 0.893804
vt 0.342510 0.893804
vn -0.5000 0.0000 0.8660
vn -1.0000 0.0000 -0.0000
vn -0.5000 0.0000 -0.8660
vn 0.5000 0.0000 -0.8660
vn 0.0000 1.0000 0.0000
vn 1.0000 0.0000 0.0000
vn 0.5000 0.0000 0.8660
vn 0.0000 -1.0000 -0.0000
usemtl Material
s off
f 1/1/1 2/2/1 4/3/1 3/4/1
f 3/4/2 4/3/2 6/5/2 5/6/2
f 5/6/3 6/5/3 8/7/3 7/8/3
f 7/8/4 8/7/4 10/9/4 9/10/4
f 4/3/5 2/2/5 12/11/5 10/9/5 8/7/5 6/5/5
f 9/10/6 10/9/6 12/11/6 11/12/6
f 11/12/7 12/11/7 2/2/7 1/1/7
f 1/1/8 3/4/8 5/6/8 7/8/8 9/10/8 11/12/8
