# Blender v2.82 (sub 7) OBJ File: 'Trampoline.blend'
# www.blender.org
mtllib Trampoline.mtl
o Trampoline_Trampoline_Mesh
v 2.000000 -0.100000 -2.000000
v 2.000000 0.100000 -2.000000
v 2.000000 -0.100000 2.000000
v 2.000000 0.100000 2.000000
v -2.000000 -0.100000 -2.000000
v -2.000000 0.100000 -2.000000
v -2.000000 -0.100000 2.000000
v -2.000000 0.100000 2.000000
vt 0.010049 0.800009
vt 0.000052 0.800009
vt 0.000052 0.600071
vt 0.010049 0.600071
vt 0.000053 0.400135
vt 0.010049 0.400135
vt 0.020151 0.600073
vt 0.010154 0.600073
vt 0.010154 0.400135
vt 0.020151 0.400135
vt 0.010049 0.999948
vt 0.000052 0.999948
vt 0.000100 0.000100
vt 0.999900 0.000100
vt 0.999900 0.999900
vt 0.000100 0.999900
vt 0.000100 0.999900
vt 0.000100 0.000100
vt 0.999900 0.000100
vt 0.999900 0.999900
vn 1.0000 0.0000 0.0000
vn 0.0000 0.0000 1.0000
vn -1.0000 0.0000 0.0000
vn 0.0000 0.0000 -1.0000
vn 0.0000 -1.0000 0.0000
vn 0.0000 1.0000 0.0000
usemtl None
s off
f 1/1/1 2/2/1 4/3/1 3/4/1
f 3/4/2 4/3/2 8/5/2 7/6/2
f 7/7/3 8/8/3 6/9/3 5/10/3
f 5/11/4 6/12/4 2/2/4 1/1/4
f 3/13/5 7/14/5 5/15/5 1/16/5
f 8/17/6 4/18/6 2/19/6 6/20/6
